<svg xmlns="http://www.w3.org/2000/svg" viewBox="0 0 100 100.6"><defs><style>.cls-1{fill:#e8e0f0;}.cls-2{fill:#e8e1f0;}.cls-3{fill:#010101;}.cls-4{fill:#f6b369;}.cls-5{fill:#f58462;}.cls-6{fill:#415180;}</style></defs><g id="Layer_2" data-name="Layer 2"><rect class="cls-1" width="100" height="100"/></g><g id="Layer_1" data-name="Layer 1"><path class="cls-2" d="M99.8,8.4V93.6a6.7,6.7,0,0,1-2.9,5.6,5.2,5.2,0,0,1-1.8,1l-1.7.4H7.2l-1.4-.2a6.8,6.8,0,0,1-2-.7l-1.3-.9A7.2,7.2,0,0,1,.2,93.6V8.4a7,7,0,0,1,7-7H92.8A7,7,0,0,1,99.8,8.4Z"/><path class="cls-3" d="M84.5,81.2s8.1-2.4,5.6-14.3C88,56.7,74.5,55.1,74.5,55.1a15.4,15.4,0,0,0,1-14c-3.1-7.3-7.4-8.7-7.4-8.7a15.3,15.3,0,0,0-4.4-10.7c-4.7-4.7-11.1.2-11.1.2s-12.2-2.6-19.8,3.8-4.6,17.6-4.6,17.6-12,4.3-14.9,16.9S18,79.6,18,79.6Z"/><path class="cls-4" d="M93.4,100.6H7.2l-1.4-.2a6.8,6.8,0,0,1-2-.7l-1.3-.9C6.7,89,13.9,74.9,21.7,69.1,34.6,59.4,38,57.6,58.5,59.8,71.7,61.2,85.7,76.9,93.4,100.6Z"/><path class="cls-5" d="M43.4,53.1l-.5,8.3a12.9,12.9,0,0,0,7,3.1c5.4.4,7.6-2.5,7.6-2.5L58,51.1Z"/><path class="cls-3" d="M43.4,53.1s2.3,8,9,6.3c4.9-1.2,5.5-7.4,5.5-7.4Z"/><path class="cls-5" d="M61.5,30.4s2.1,15-3.1,21.8-11.5,4.4-14.2,2.1A12.9,12.9,0,0,1,40,47.1s-5.3.7-6.8-3.6,1.9-8,4.5-8.1,3,.4,3,.4L40.1,31S57,14.3,61.5,30.4Z"/><path class="cls-5" d="M58.6,37.2s8.2-3,8.4,3.2-8.1,6.7-8.1,6.7Z"/><path class="cls-3" d="M39.3,36.2s2.7,1.3,8.8-2.6,4.7-9,4.7-9,7.7,5.4,9.1,11.7,3.4-14.5-5.7-14.6S33.3,26.8,39.3,36.2Z"/><path class="cls-3" d="M62.3,43.8H62c-.3-.1-.3-.4-.2-.7l2.9-4.4a.6.6,0,0,1,.8-.1.5.5,0,0,1,.1.7l-2.9,4.4A.4.4,0,0,1,62.3,43.8Z"/><path class="cls-3" d="M39.4,42.7h-.3l-3.9-3.7a.5.5,0,0,1,0-.7.6.6,0,0,1,.8-.1l3.8,3.7a.6.6,0,0,1,0,.8Z"/><path class="cls-3" d="M35.7,43.2a.5.5,0,0,1-.5-.3.5.5,0,0,1,.2-.7l2.5-1.7a.5.5,0,0,1,.7.2.5.5,0,0,1-.1.7L36,43.1Z"/><path class="cls-3" d="M65.4,42.7l-2.3-.2a.6.6,0,0,1,.1-1.1l2.3.2a.6.6,0,0,1,.5.6C65.9,42.4,65.7,42.7,65.4,42.7Z"/><path class="cls-3" d="M52.9,45.8h-.1a.4.4,0,0,1-.4-.6,14.2,14.2,0,0,0-.3-6.9.5.5,0,0,1,.3-.7.6.6,0,0,1,.7.3,15.6,15.6,0,0,1,.3,7.5A.5.5,0,0,1,52.9,45.8Z"/><path class="cls-3" d="M50.9,49.9c-1.8,0-2.8-2.1-2.8-2.2a.6.6,0,0,1,0-.6l.5-.2,5.1.8a.5.5,0,0,1,.5.3.7.7,0,0,1-.2.6,6,6,0,0,1-3.1,1.3Zm-1.2-1.8a1.5,1.5,0,0,0,1.2.7,2.4,2.4,0,0,0,1.2-.3Z"/><path class="cls-3" d="M58.2,33.8h-.3a4,4,0,0,0-2.4-.8.5.5,0,0,1-.5-.5.6.6,0,0,1,.5-.6,5.6,5.6,0,0,1,3.1,1.1.5.5,0,0,1,0,.7Z"/><path class="cls-3" d="M46.5,34.3l-.3-.2a.5.5,0,0,1,0-.7,4.5,4.5,0,0,1,3-1.1.5.5,0,0,1,.5.5c.1.3-.2.5-.5.5a4.6,4.6,0,0,0-2.3.8A.5.5,0,0,1,46.5,34.3Z"/><path class="cls-6" d="M50.6,65.4c-5.9,0-8.2-3.3-8.3-3.5a.5.5,0,0,1,.1-.7.6.6,0,0,1,.8.1c0,.2,2.1,3,7.4,3h0c6,0,7.2-3.2,7.3-3.4a.5.5,0,1,1,1,.4c-.1.1-1.5,4.1-8.2,4.1Z"/><path class="cls-3" d="M61.9,36.3s7.2-9,1.8-14.6-20.8-8.3-28.1,2.2c-5.2,7.4,3.7,12.3,3.7,12.3l10-10.1,3.5-1.5,5.8,1.5Z"/><path class="cls-3" d="M47,39.4a.6.6,0,0,1-.6-.5V36.3a.4.4,0,0,1,.2-.4l1.6-1.2a.5.5,0,0,1,.8.1.5.5,0,0,1-.1.7l-1.5,1.1v2.3a.5.5,0,0,1-.5.5Z"/><path class="cls-3" d="M56.4,39.4a.5.5,0,0,1-.5-.5V36.3a.4.4,0,0,1,.2-.4l1.6-1.2a.5.5,0,0,1,.8.1.5.5,0,0,1-.1.7l-1.5,1.1v2.3a.5.5,0,0,1-.5.5Z"/></g></svg>